<?xml version="1.0" encoding="UTF-8"?>
<!DOCTYPE svg PUBLIC "-//W3C//DTD SVG 1.1//EN" "http://www.w3.org/Graphics/SVG/1.1/DTD/svg11.dtd">
<!-- Creator: CorelDRAW 2026 -->
<svg xmlns="http://www.w3.org/2000/svg" xml:space="preserve" width="3.97418in" height="1.29241in" version="1.1" shape-rendering="geometricPrecision" text-rendering="geometricPrecision" image-rendering="optimizeQuality" fill-rule="evenodd" clip-rule="evenodd"
viewBox="0 0 435.04 141.48"
 xmlns:xlink="http://www.w3.org/1999/xlink"
 xmlns:xodm="http://www.corel.com/coreldraw/odm/2003">
 <g id="__x0023_Layer_x0020_1">
  <metadata id="CorelCorpID_0Corel-Layer"/>
  <g id="_2442351585568">
   <path fill="#FA6707" d="M79.64 121.82c-0.06,0.93 -0.08,1.86 -0.03,2.79 0.77,-0.69 1.34,-1.57 2.09,-2.29 -0.56,2.33 -0.56,4.77 -0.08,7.11 0.77,-0.93 1.31,-2.03 2.1,-2.94 -0.09,1.7 -0.24,3.4 -0.25,5.11 1.13,-1.04 2.34,-1.98 3.63,-2.81 0.42,-0.24 0.94,-0.55 1.41,-0.27 1.46,0.69 2.89,1.44 4.3,2.23 0.66,0.4 1.38,0.78 1.85,1.41 0.29,0.35 0.09,0.83 -0.14,1.15 -0.58,0.7 -1.44,1.06 -2.1,1.66 -1,1.14 -1.02,2.95 -0.15,4.18 0.53,0.87 1.56,1.36 2.57,1.3 -1.02,-0.55 -1.87,-1.65 -1.61,-2.86 0.42,-0.05 0.91,-0.09 1.21,-0.44 0.45,-0.45 0.2,-1.26 0.76,-1.63 0.58,-0.46 1.21,-0.87 1.88,-1.2 0.44,-0.22 0.95,-0.1 1.4,0.02 1.17,0.41 2.26,1.12 2.98,2.14 0.41,0.48 0.24,1.23 0.74,1.66 0.2,0.3 0.72,0.28 0.81,0.66 0.21,0.97 -0.21,1.97 -0.86,2.68 0.64,-0.22 1.3,-0.49 1.71,-1.05 0.74,-1 0.8,-2.36 0.51,-3.53 -0.45,-1.23 -1.34,-2.24 -2.33,-3.08 0.66,0.11 1.3,0.35 1.84,0.74 0.49,0.33 0.73,0.89 1.15,1.3 0.36,0.37 1.03,0.05 1.33,0.51 0.59,0.89 0.42,2.04 -0.08,2.94 1.19,-0.74 1.7,-2.31 1.28,-3.63 -0.26,-0.88 -0.93,-1.54 -1.52,-2.21 -0.39,-0.46 -0.96,-0.69 -1.5,-0.91 -1.08,-0.42 -6.03,-1.53 -7.2,-2.24 -1.64,-0.98 -3.29,-1.94 -4.9,-2.97 -0.56,-0.34 -1.06,-0.78 -1.38,-1.35 -0.64,-1.4 -0.59,-3 -0.25,-4.47 0.2,-0.84 0.8,-3.42 1.35,-6.1 0.13,-0.63 0.75,-3.61 0.75,-3.61 0,0 0.01,-0 0.13,-0.09 0.11,-0.08 4.69,-2.77 6.63,-4.57 0.13,-0.12 4.94,-5.36 13.38,-6.05 9.34,-0.48 12.5,2.14 12.6,3.61 0.01,0.18 -0,0.37 -0.06,0.58 -0.02,0.12 -0.05,0.24 -0.08,0.37 -0.01,0.06 -0.01,0.09 -0.01,0.09 0,0 0,-0 0.05,-0.04 0.04,-0.03 2.59,-1.42 2.27,-4.81 -0.02,-0.15 -0.05,-0.3 -0.08,-0.44 -0.23,-0.99 -0.86,-2.05 -2.25,-3l-0.39 -0.27 0 -0.72c0,-2.33 -1.91,-4.18 -3.75,-5.57 -3.45,-2.6 -7.6,-4.49 -11.7,-5.79 -0.12,-0.04 -2.94,-0.93 -2.94,-0.93 0,0 0,0 0.07,0.06 0.06,0.06 2.69,2.76 2.67,2.74 0.02,0.04 0.03,0.04 0.03,0.04 0,0 -0,-0 -0.06,-0 -3.13,-0.83 -14.34,-2.49 -17.72,-4.93 -0.7,-0.44 -1.36,-0.96 -1.97,-1.57 -3.49,-3.52 -6.03,-7.58 -8.64,-11.68 -2.57,-4.03 -4.98,-8.07 -7.53,-12.13 -2.63,-4.18 -7.09,-6.68 -11.17,-9.36 -7.89,-5.18 -16.1,-10.02 -23.68,-15.73 -2.94,-2.21 -5.74,-4.6 -8.4,-7.14 -4.44,-4.25 -14.38,-14.97 -18.23,-24.22 -0.08,-0.17 -0.13,-0.26 -0.13,-0.26 0,0 0,0.03 0.02,0.36 -0.12,18.5 12.76,28.65 12.9,28.89 0.06,0.09 0.09,0.15 0.09,0.15 0,0 -17.7,-10.12 -24.8,-18.88 -0.11,-0.12 -0.18,-0.19 -0.18,-0.19 0,0 0.01,0.04 0.06,0.25 2.43,15.97 24.5,27.32 24.62,27.43 0.03,0.03 0.06,0.05 0.06,0.05 0,0 -0.01,-0 -0.08,-0 -0.07,-0 -12.88,-2.92 -24.41,-10.87 -0.09,-0.06 -0.14,-0.1 -0.14,-0.1 0,0 0.01,0.01 0.08,0.14 5.94,15.14 27.3,19.96 27.54,20.06 0.11,0.05 0.18,0.08 0.18,0.08 0,0 -0.01,0 -0.13,0.02 -0.12,0.01 -9.87,0.36 -20.59,-3.51 -0.16,-0.05 -0.26,-0.08 -0.26,-0.08 0,0 0,0 0.05,0.06 0.59,0.93 1.24,1.78 1.92,2.55 7.66,8.97 24.18,9.82 24.16,9.82 0.15,0.03 0.16,0.03 0.16,0.03 0,0 -0.02,0.01 -0.16,0.04 -0.14,0.03 -6.98,2.04 -18.53,-0 -0.17,-0.02 -0.28,-0.03 -0.28,-0.03 0,0 0.01,0.01 0.04,0.03 0.04,0.04 2.35,3.2 6.87,5.15 7.78,3.5 17.68,3.02 17.68,3.02 0.02,0.01 0.02,0.01 0.02,0.01 0,0 -0,0 -0,0.01 -0,0.01 -6.14,2.11 -14.92,2.2 -0.02,0 -1.17,0.01 -1.17,0.01 0,0 0,0 0.03,0.03 0.05,0.05 0.09,0.1 0.14,0.15 9.95,11.26 31.23,1.4 31.25,1.39 0.14,-0.05 0.14,-0.05 0.14,-0.05 0,0 -0.04,-0.01 -0.31,-0.08 -0.17,-0.04 -4.5,-0.71 -8.56,-1.64 -4.46,-0.94 -6.43,-2.06 -6.45,-2.06 -0.02,-0 -0.02,-0 -0.02,-0l8.03 -1.7c0,0 2.83,-0.6 2.83,-0.6 0,0 -0,-0 -0.2,-0.08 0,0 -7.97,-2.19 -12.35,-5.24 -0.08,-0.04 -0.09,-0.04 -0.09,-0.04l8.22 -0.85c0,0 1.67,-0.17 1.67,-0.17 0,0 -0.01,-0 -0.29,-0.14 -0.28,-0.14 -9.5,-3.02 -12.47,-6.49 -0.13,-0.08 -0.14,-0.08 -0.14,-0.08l6 0.07c0,0 2.11,0.02 2.11,0.02 0,0 -0,-0 -0.14,-0.1 0,0 -7.37,-3.68 -9.52,-7 -0.04,-0.03 -0.04,-0.03 -0.04,-0.03l5.38 0.79c0,0 2.85,0.42 2.85,0.42 0,0 -0,-0 -0.08,-0.07 -0,-0 -0.01,-0 -0.01,-0.01 -2.78,-2.5 -6.88,-4.38 -8.11,-7.96 -0,-0.01 -0.01,-0.02 -0.01,-0.03 -0.04,-0.05 -0.05,-0.06 -0.05,-0.06l5.62 2.7c0,0 1.01,0.49 1.01,0.49 0,0 -0,-0 -0.09,-0.14 -1.59,-2.33 -4.9,-5.25 -5.39,-8.5 -0.05,-0.07 -0.05,-0.08 -0.05,-0.08l5.14 4.39c0.05,0.04 0.09,0.08 0.14,0.12 1.59,1.36 3.4,2.53 5.06,3.83 7.85,6.12 16.39,11.52 23.23,18.84 6.48,6.93 10.33,15.81 15.54,23.64 1.41,2.12 2.8,4.31 4.61,6.12 0.09,0.09 7.26,7.48 9.7,7.43 0.08,0.05 0.08,0.05 0.08,0.05l-0.42 1.34c-0.09,0.3 -0.2,0.6 -0.27,0.87 -0.45,1.92 -1,3.97 -1.91,5.8 -2.23,4.5 -5.91,8.3 -10.5,10.53 -1.92,0.94 -3.57,1.7 -5.98,2.49 -0.95,0.31 -1.31,0.43 -1.31,0.43 0,0 0,0 0.05,0.01 2.14,-0.09 2.81,0.55 3.07,1.02 0.52,1.03 -0.3,3.65 -0.29,5.34z"/>
   <path fill="#FA6707" d="M70.1 120.63c0.12,-0.07 0.13,-0.07 0.13,-0.07 0,0 -0.08,0.01 -0.22,0.01 -4.36,0.66 -7.48,-0.79 -7.49,-0.79 -0.03,-0.01 -0.03,-0.01 -0.03,-0.01l1.95 -1c0.44,-0.22 0.82,-0.42 0.83,-0.43 0.04,-0.03 0.05,-0.03 0.05,-0.03 0,0 -0.11,0.03 -0.75,0.2 -0.64,0.18 -12.41,4.12 -16.69,5.05 -0.11,0.03 -0.12,0.03 -0.12,0.03 0,0 1.66,0.85 1.66,0.85 2.56,1.31 5.17,1.49 7.75,1.07 3.21,-0.36 10.04,-3.43 11.02,-3.89 1.22,-0.58 1.84,-0.96 1.9,-0.99z"/>
   <path fill="#FA6707" d="M64.68 117.77c0.19,-0.07 0.31,-0.11 0.31,-0.11 0,0 -0.03,-0 -0.34,-0.03 -0.31,-0.02 -7.29,-0.17 -8.88,-1.64 -0.02,-0.03 -0.03,-0.04 -0.03,-0.04 -0.02,-0.02 -0.02,-0.02 -0.02,-0.02 0,0 0,0 0.02,-0 4.87,-0.53 7.78,-1.88 7.78,-1.88 0.08,-0.04 0.08,-0.05 0.08,-0.05 0,0 -0.01,-0 -0.11,-0.02 -0.09,-0.02 -5.22,0.07 -6.97,-1.25 -0.01,-0.01 -0.03,-0.02 -0.04,-0.03 1.04,-0.26 2.06,-0.53 3.07,-0.82 4.55,-1.31 10.1,-3.55 13.85,-8.18 0.16,-0.17 0.18,-0.18 0.18,-0.18l-2.31 1.25c-12.41,6.74 -26.73,7.06 -40.48,5.47 0.56,0.89 1.19,1.65 1.88,2.3 5.48,5.6 20.54,3.51 20.53,3.51 0.05,0.02 0.05,0.02 0.05,0.02 0,0 -0,0 -0.02,0.02 -0.02,0.02 -6.2,2.29 -14.99,2.31 -0.31,0.01 -0.57,0.01 -0.57,0.01 0,0 0,0 0.06,0.05 2.96,3.05 6.13,3.81 9.54,3.59 5.11,-0.22 16.58,-4.01 17.37,-4.28z"/>
   <path fill="#FA6707" d="M66.52 85.85c0.01,-0.04 0.01,-0.04 0.01,-0.04 0,0 -0.03,0 -0.2,0.01 -10.92,0.27 -14.64,6.99 -21.11,6.51 -0.18,0.01 -0.31,0.01 -0.31,0.01 0,0 0.02,0.01 0.16,0.08 1.96,1.72 4.02,2.54 5.99,2.84 8.29,1.07 14.03,-4.07 15.45,-9.4z"/>
   <path fill="#FA6707" d="M63.13 79.29c0,0 -0.01,0 -0.12,0.02 -3.18,1.07 -7.31,1.23 -10.55,1.44 -2.86,-0 -5.43,0.76 -7.51,1.48 -1.32,0.46 -4.13,1.77 -8.14,1.63 -0.32,0.01 -0.56,0.02 -0.56,0.02 0,0 0.02,0.02 0.18,0.15 3.28,3.26 7.03,4.44 10.65,4.36 10.08,-0.37 15.66,-8.62 15.83,-8.82 0.18,-0.22 0.22,-0.26 0.22,-0.26z"/>
   <path fill="#FA6707" d="M103.85 82.18l0.31 -1.49c1.18,-5.72 4.28,-10.4 7.46,-15.02 1.79,-2.6 4.32,-4.79 5.16,-7.88 0.66,-2.41 0.37,-4.88 0.23,-7.35 -0.56,-10.19 0.15,-20.29 0.94,-30.51 -0.14,0.18 -0.27,0.37 -0.4,0.55 -6.46,8.37 -6.23,21.44 -6.23,21.43 -0.01,0.02 -0.01,0.02 -0.01,0.03 -0,0 -1.99,-1.25 -4.28,-12.94 -0.02,-0.1 -0.05,-0.2 -0.08,-0.3 -0.1,0.2 -0.19,0.41 -0.28,0.61 -4.3,8.85 0.03,17.93 0.02,17.93 0,0.02 0,0.02 0,0.02 0,0 -0,0 -0.02,-0.01 -0.77,-0.02 -5.57,-5.55 -7.37,-8.88 -0.02,-0.04 -0.05,-0.09 -0.07,-0.13 -0.03,0.08 -0.06,0.15 -0.08,0.23 -2.82,8.04 3.46,14.14 3.46,14.13 0.02,0.05 0.02,0.06 0.02,0.06 0,0 0,0 0,0 0,0 -2.82,-0.59 -7.98,-4.77 -0.02,-0.02 -0.05,-0.03 -0.07,-0.05 -0.59,1.85 -0.94,3.04 -1.16,4.7 0.03,0.07 0.07,0.13 0.1,0.2 1.13,2.12 3.26,3 5,4.49 0.05,0.05 0.11,0.09 0.16,0.14 -0.06,0.01 -0.11,0.02 -0.17,0.03 -3.87,0.29 -5.06,-0.24 -7.68,-0.43 -0.04,0 -0.07,0 -0.11,0 -0.03,0.07 -0.06,0.13 -0.09,0.2 -1.96,3.17 -4.45,7.89 -5.21,11.83 -0.01,0.04 -0.02,0.08 -0.02,0.11 3.69,6.47 8.64,12.44 16.62,12.94l1.82 0.12z"/>
   <path fill="#FA6707" d="M57.18 75.41c0.05,-0.03 1.95,-1.2 1.95,-1.2 0,0 -0.05,0 -0.32,0.02 -3.32,0.48 -6.41,-0.35 -9.13,-0.97 -3.4,-1 -6.25,-0.59 -8.32,-0.04 -1.1,0.29 -6.57,2.33 -11.81,1.84 -0.19,-0.01 -0.31,-0.01 -0.31,-0.01 0,0 0.02,0.01 0.17,0.15 2.87,3.07 6.27,4.49 9.75,4.88 8.74,0.88 17.13,-4.12 18.01,-4.66z"/>
   <path fill="#FA6707" d="M71.99 95.77c0.2,-0.37 0.48,-0.87 0.48,-0.87 0,0 -0.03,0 -0.29,-0 -0.26,-0 -6.66,-1.59 -13.91,2.96 -1.91,0.89 -3.78,1.66 -5.47,1.71 -0.26,0.03 -0.53,0.04 -0.79,0.05 -0.16,0.01 -0.26,0.02 -0.26,0.02 0,0 0.02,0.01 0.17,0.15 2.82,3.18 5.83,4.38 8.75,4.4 0.43,-0.01 0.85,-0.03 1.27,-0.08 6.61,-0.63 9.86,-7.96 10.07,-8.33z"/>
  </g>
  <g id="_2442351591520">
   <path fill="#242526" d="M197.81 39.92c2.56,0 4.94,0.45 7.13,1.35 2.19,0.9 4.1,2.17 5.72,3.81 1.62,1.64 2.88,3.54 3.79,5.72 0.91,2.17 1.37,4.55 1.37,7.12 0,2.57 -0.46,4.96 -1.37,7.14 -0.91,2.19 -2.17,4.1 -3.79,5.74 -1.62,1.64 -3.52,2.92 -5.72,3.84 -2.19,0.92 -4.57,1.38 -7.13,1.38 -2.53,0 -4.89,-0.46 -7.08,-1.38 -2.19,-0.92 -4.1,-2.2 -5.72,-3.84 -1.62,-1.64 -2.88,-3.55 -3.79,-5.74 -0.91,-2.19 -1.37,-4.57 -1.37,-7.14 0,-2.57 0.46,-4.95 1.37,-7.12 0.91,-2.17 2.17,-4.08 3.79,-5.72 1.62,-1.64 3.52,-2.91 5.72,-3.81 2.19,-0.9 4.55,-1.35 7.08,-1.35zm0 5.72l0 0c-2.23,0 -4.24,0.54 -6.04,1.63 -1.8,1.09 -3.23,2.55 -4.27,4.39 -1.05,1.84 -1.57,3.93 -1.57,6.27 0,2.34 0.52,4.45 1.57,6.32 1.05,1.87 2.47,3.35 4.27,4.44 1.8,1.09 3.82,1.63 6.04,1.63 2.26,0 4.29,-0.54 6.09,-1.63 1.8,-1.09 3.23,-2.57 4.27,-4.44 1.05,-1.87 1.57,-3.98 1.57,-6.32 0,-2.34 -0.52,-4.43 -1.57,-6.27 -1.05,-1.84 -2.47,-3.3 -4.27,-4.39 -1.8,-1.09 -3.84,-1.63 -6.09,-1.63z"/>
   <path fill="#242526" d="M246.28 39.92c1.52,0 3.04,0.22 4.58,0.65 1.53,0.43 2.96,1.03 4.27,1.78 1.31,0.75 2.38,1.61 3.19,2.58l-3.49 4.56c-1.15,-1.2 -2.54,-2.16 -4.17,-2.86 -1.64,-0.7 -3.25,-1.05 -4.83,-1.05 -1.62,0 -2.94,0.37 -3.97,1.1 -1.03,0.74 -1.54,1.69 -1.54,2.86 0,1.07 0.34,1.93 1.01,2.58 0.67,0.65 1.58,1.19 2.71,1.6 1.13,0.42 2.37,0.81 3.72,1.18 1.35,0.37 2.69,0.79 4.02,1.25 1.33,0.47 2.56,1.08 3.69,1.83 1.13,0.75 2.03,1.72 2.71,2.91 0.67,1.19 1.01,2.68 1.01,4.49 0,1.87 -0.51,3.62 -1.52,5.24 -1.01,1.62 -2.46,2.92 -4.35,3.91 -1.89,0.99 -4.15,1.48 -6.78,1.48 -1.82,0 -3.61,-0.27 -5.36,-0.8 -1.75,-0.53 -3.37,-1.25 -4.86,-2.16 -1.48,-0.9 -2.75,-1.92 -3.79,-3.06l3.79 -4.31c1.35,1.3 2.85,2.41 4.5,3.31 1.65,0.9 3.56,1.35 5.72,1.35 1.92,0 3.49,-0.45 4.7,-1.35 1.21,-0.9 1.82,-2.09 1.82,-3.56 0,-1.04 -0.34,-1.86 -1.01,-2.48 -0.67,-0.62 -1.57,-1.13 -2.68,-1.53 -1.11,-0.4 -2.33,-0.77 -3.67,-1.1 -1.33,-0.33 -2.66,-0.73 -4,-1.18 -1.33,-0.45 -2.55,-1.04 -3.67,-1.75 -1.11,-0.72 -2.01,-1.67 -2.68,-2.86 -0.67,-1.19 -1.01,-2.7 -1.01,-4.54 0,-1.91 0.51,-3.62 1.54,-5.14 1.03,-1.52 2.44,-2.72 4.22,-3.61 1.79,-0.89 3.84,-1.33 6.17,-1.33z"/>
   <path fill="#242526" d="M278.27 40.42l13.55 0c2.19,0 4.14,0.47 5.84,1.4 1.7,0.94 3.04,2.21 4.02,3.81 0.98,1.6 1.47,3.44 1.47,5.52 0,2.07 -0.49,3.93 -1.47,5.57 -0.98,1.64 -2.32,2.92 -4.02,3.86 -1.7,0.94 -3.65,1.4 -5.84,1.4l-7.64 0 0 13.54 -5.92 0 0 -35.1zm5.92 15.94l0 0 7.64 0c1.52,0 2.79,-0.5 3.82,-1.5 1.03,-1 1.54,-2.24 1.54,-3.71 0,-1.47 -0.51,-2.69 -1.54,-3.66 -1.03,-0.97 -2.3,-1.45 -3.82,-1.45l-7.64 0 0 10.33z"/>
   <path fill="#242526" d="M321.49 75.51l0 -35.1 13.25 0c1.99,0 3.81,0.46 5.46,1.38 1.65,0.92 2.97,2.16 3.94,3.74 0.98,1.57 1.47,3.34 1.47,5.31 0,2.47 -0.62,4.59 -1.85,6.34 -1.23,1.75 -2.91,2.97 -5.03,3.64l9.86 14.69 -7.18 0 -9 -14.09 -5.01 0 0 14.09 -5.92 0zm5.92 -19.85l0 0 6.57 0c1.69,0 3.03,-0.43 4.02,-1.3 0.99,-0.87 1.49,-2.04 1.49,-3.51 0,-1.44 -0.5,-2.57 -1.49,-3.41 -0.99,-0.84 -2.33,-1.25 -4.02,-1.25l-6.57 0 0 9.48z"/>
   <polygon fill="#242526" points="366.13,40.42 386.96,40.42 386.96,46.03 372.04,46.03 372.04,54.31 385.4,54.31 385.4,59.92 372.04,59.92 372.04,69.9 386.96,69.9 386.96,75.51 366.13,75.51 "/>
   <polygon fill="#242526" points="403.18,40.42 410.36,40.42 419.26,54.36 428.11,40.42 435.04,40.42 422.19,60.27 422.19,75.51 416.27,75.51 416.27,60.27 "/>
  </g>
  <g id="_2442351589552">
   <polygon fill="#242526" points="183.86,91.47 186.25,91.47 189.85,102.44 193.45,91.47 195.8,91.47 190.77,106.43 188.91,106.43 "/>
   <polygon fill="#242526" points="226.2,91.47 228.44,91.47 228.44,106.43 226.2,106.43 "/>
   <path fill="#242526" d="M264.29 91.26c0.57,0 1.15,0.09 1.73,0.28 0.58,0.19 1.12,0.44 1.62,0.76 0.5,0.32 0.9,0.69 1.21,1.1l-1.32 1.95c-0.43,-0.51 -0.96,-0.92 -1.58,-1.22 -0.62,-0.3 -1.23,-0.45 -1.83,-0.45 -0.61,0 -1.11,0.16 -1.5,0.47 -0.39,0.31 -0.58,0.72 -0.58,1.22 0,0.46 0.13,0.82 0.38,1.1 0.26,0.28 0.6,0.51 1.02,0.68 0.43,0.18 0.9,0.35 1.41,0.5 0.51,0.16 1.02,0.33 1.52,0.53 0.5,0.2 0.97,0.46 1.4,0.78 0.43,0.32 0.77,0.73 1.02,1.24 0.26,0.51 0.38,1.14 0.38,1.91 0,0.8 -0.19,1.54 -0.57,2.23 -0.38,0.69 -0.93,1.25 -1.65,1.67 -0.71,0.42 -1.57,0.63 -2.56,0.63 -0.69,0 -1.37,-0.11 -2.03,-0.34 -0.66,-0.23 -1.28,-0.53 -1.84,-0.92 -0.56,-0.38 -1.04,-0.82 -1.44,-1.3l1.44 -1.84c0.51,0.56 1.08,1.03 1.7,1.41 0.63,0.38 1.35,0.58 2.16,0.58 0.73,0 1.32,-0.19 1.78,-0.58 0.46,-0.38 0.69,-0.89 0.69,-1.52 0,-0.44 -0.13,-0.79 -0.38,-1.06 -0.26,-0.26 -0.59,-0.48 -1.01,-0.65 -0.42,-0.17 -0.88,-0.33 -1.39,-0.47 -0.5,-0.14 -1.01,-0.31 -1.51,-0.5 -0.5,-0.19 -0.97,-0.44 -1.39,-0.75 -0.42,-0.31 -0.76,-0.71 -1.01,-1.22 -0.26,-0.51 -0.38,-1.15 -0.38,-1.94 0,-0.81 0.19,-1.54 0.58,-2.19 0.39,-0.65 0.92,-1.16 1.6,-1.54 0.68,-0.38 1.45,-0.57 2.33,-0.57z"/>
   <path fill="#242526" d="M305.13 106.63c-1,0 -1.89,-0.26 -2.68,-0.77 -0.79,-0.51 -1.41,-1.21 -1.87,-2.11 -0.45,-0.89 -0.68,-1.9 -0.68,-3.02l0 -9.26 2.24 0 0 9.26c0,0.66 0.13,1.25 0.39,1.77 0.26,0.53 0.62,0.94 1.07,1.25 0.45,0.31 0.96,0.46 1.52,0.46 0.57,0 1.08,-0.15 1.53,-0.46 0.45,-0.31 0.8,-0.72 1.06,-1.25 0.26,-0.53 0.39,-1.12 0.39,-1.77l0 -9.26 2.24 0 0 9.26c0,1.13 -0.23,2.13 -0.68,3.02 -0.45,0.89 -1.07,1.59 -1.86,2.11 -0.78,0.51 -1.68,0.77 -2.69,0.77z"/>
   <path fill="#242526" d="M347.14 91.47l5.36 14.96 -2.45 0 -1.03 -2.99 -5.67 0 -1.05 2.99 -2.37 0 5.34 -14.96 1.88 0zm-3 9.75l0 0 4.11 0 -2.05 -5.9 -2.07 5.9z"/>
   <polygon fill="#242526" points="382.82,91.47 385.06,91.47 385.06,104.04 391.47,104.04 391.47,106.43 382.82,106.43 "/>
   <path fill="#242526" d="M426.15 91.26c0.57,0 1.15,0.09 1.73,0.28 0.58,0.19 1.12,0.44 1.62,0.76 0.5,0.32 0.9,0.69 1.21,1.1l-1.32 1.95c-0.43,-0.51 -0.96,-0.92 -1.58,-1.22 -0.62,-0.3 -1.23,-0.45 -1.83,-0.45 -0.61,0 -1.11,0.16 -1.5,0.47 -0.39,0.31 -0.58,0.72 -0.58,1.22 0,0.46 0.13,0.82 0.38,1.1 0.26,0.28 0.6,0.51 1.02,0.68 0.43,0.18 0.9,0.35 1.41,0.5 0.51,0.16 1.02,0.33 1.52,0.53 0.5,0.2 0.97,0.46 1.4,0.78 0.43,0.32 0.77,0.73 1.02,1.24 0.26,0.51 0.38,1.14 0.38,1.91 0,0.8 -0.19,1.54 -0.57,2.23 -0.38,0.69 -0.93,1.25 -1.65,1.67 -0.71,0.42 -1.57,0.63 -2.57,0.63 -0.69,0 -1.37,-0.11 -2.03,-0.34 -0.66,-0.23 -1.28,-0.53 -1.84,-0.92 -0.56,-0.38 -1.04,-0.82 -1.44,-1.3l1.44 -1.84c0.51,0.56 1.08,1.03 1.7,1.41 0.62,0.38 1.35,0.58 2.16,0.58 0.73,0 1.32,-0.19 1.78,-0.58 0.46,-0.38 0.69,-0.89 0.69,-1.52 0,-0.44 -0.13,-0.79 -0.38,-1.06 -0.26,-0.26 -0.59,-0.48 -1.01,-0.65 -0.42,-0.17 -0.88,-0.33 -1.39,-0.47 -0.5,-0.14 -1.01,-0.31 -1.51,-0.5 -0.5,-0.19 -0.97,-0.44 -1.39,-0.75 -0.42,-0.31 -0.76,-0.71 -1.01,-1.22 -0.26,-0.51 -0.38,-1.15 -0.38,-1.94 0,-0.81 0.19,-1.54 0.58,-2.19 0.39,-0.65 0.92,-1.16 1.6,-1.54 0.68,-0.38 1.45,-0.57 2.33,-0.57z"/>
  </g>
  <polygon fill="black" points="159.88,18.68 157.98,18.68 157.98,127.89 159.88,127.89 "/>
 </g>
</svg>
